<svg width="17" height="16" viewBox="0 0 17 16" fill="none" xmlns="http://www.w3.org/2000/svg">
<path d="M14.8486 7.16617L14.8162 10.8317C14.7946 13.2754 14.1248 13.8863 11.4671 13.8863L4.8229 13.8863C2.16521 13.8863 1.50619 13.2754 1.52776 10.8317L1.5817 4.72247C1.60328 2.27877 2.27309 1.66785 4.93078 1.66785L5.92741 1.66785C6.92404 1.66785 7.14093 1.93665 7.51555 2.40096L8.50139 3.62281C8.75118 3.92827 8.89573 4.11155 9.56015 4.11155L11.5534 4.11155C14.2111 4.11155 14.8701 4.72247 14.8486 7.16617Z" stroke="#787486" stroke-miterlimit="10"/>
<path d="M5.92732 1.66785L11.9071 1.66785C13.236 1.66785 13.895 2.27877 13.8842 3.50062L13.8768 4.3437" stroke="#787486" stroke-miterlimit="10" stroke-linecap="round" stroke-linejoin="round"/>
<path d="M9.84373 9.60986L6.52162 9.60986" stroke="#787486" stroke-miterlimit="10" stroke-linecap="round" stroke-linejoin="round"/>
</svg>
