<svg width="17" height="16" viewBox="0 0 17 16" fill="none" xmlns="http://www.w3.org/2000/svg">
<path d="M8.85002 14.3812C8.39157 14.3812 7.96159 14.1674 7.65924 13.7947L6.6734 12.5729C6.65368 12.5484 6.57422 12.5179 6.54105 12.5118L6.20884 12.5118C3.43821 12.5118 1.7301 11.8214 1.76041 8.38802L1.78738 5.3334C1.81122 2.63311 3.37189 1.20966 6.30863 1.20966L11.624 1.20966C14.5607 1.20966 16.0963 2.63311 16.0724 5.3334L16.0455 8.38802C16.0216 11.0883 14.461 12.5118 11.5242 12.5118L11.192 12.5118C11.1388 12.5118 11.0921 12.5362 11.0586 12.5729L10.0512 13.7947C9.74224 14.1674 9.30847 14.3812 8.85002 14.3812ZM6.30054 2.12604C3.92192 2.12604 2.80332 3.14629 2.78401 5.3334L2.75704 8.38802C2.73266 11.1494 3.75858 11.5954 6.21694 11.5954L6.54915 11.5954C6.888 11.5954 7.2718 11.7725 7.47556 12.023L8.4614 13.2449C8.69147 13.5259 9.02368 13.5259 9.25871 13.2449L10.2661 12.023C10.4878 11.7542 10.8347 11.5954 11.2001 11.5954L11.5323 11.5954C13.9109 11.5954 15.0295 10.5751 15.0488 8.38802L15.0758 5.3334C15.0951 3.14629 13.9945 2.12604 11.6159 2.12604L6.30054 2.12604Z" fill="#787486"/>
<path d="M8.90833 7.77712C8.53626 7.77712 8.24634 7.5022 8.24931 7.16619C8.25227 6.83018 8.55369 6.55527 8.91912 6.55527C9.28455 6.55527 9.58112 6.83018 9.57815 7.16619C9.57518 7.5022 9.28041 7.77712 8.90833 7.77712Z" fill="#787486"/>
<path d="M11.566 7.77712C11.1939 7.77712 10.904 7.5022 10.907 7.16619C10.91 6.83018 11.2114 6.55527 11.5768 6.55527C11.9422 6.55527 12.2388 6.83018 12.2358 7.16619C12.2329 7.5022 11.9381 7.77712 11.566 7.77712Z" fill="#787486"/>
<path d="M6.25065 7.77712C5.87857 7.77712 5.58865 7.5022 5.59162 7.16619C5.59459 6.83018 5.896 6.55527 6.26144 6.55527C6.62687 6.55527 6.92343 6.83018 6.92046 7.16619C6.9175 7.5022 6.62272 7.77712 6.25065 7.77712Z" fill="#787486"/>
</svg>
